<svg width="69" height="69" viewBox="0 0 69 69" fill="none" xmlns="http://www.w3.org/2000/svg">
<mask id="mask0_395_24" style="mask-type:alpha" maskUnits="userSpaceOnUse" x="0" y="0" width="69" height="69">
<circle cx="34.5" cy="34.5" r="34.5" fill="#D9D9D9"/>
</mask>
<g mask="url(#mask0_395_24)">
<path d="M34.0114 0C19.3992 0 15.1257 0.0150782 14.2951 0.0840071C11.2964 0.333336 9.43043 0.805607 7.39758 1.818C5.83095 2.59614 4.59542 3.49814 3.37603 4.76256C1.1553 7.06844 -0.190605 9.9053 -0.677821 13.2774C-0.9147 14.9145 -0.98361 15.2484 -0.997607 23.6103C-1.00299 26.3976 -0.997607 30.0659 -0.997607 34.9863C-0.997607 49.5906 -0.981456 53.8609 -0.91147 54.6902C-0.669208 57.609 -0.211601 59.4453 0.757447 61.4539C2.60941 65.2988 6.14643 68.1852 10.3133 69.2622C11.7561 69.6338 13.3497 69.8384 15.3955 69.9354C16.2622 69.9731 25.0967 70 33.9366 70C42.7765 70 51.6163 69.9892 52.4616 69.9462C54.8304 69.8347 56.2059 69.65 57.7267 69.2569C61.9206 68.1745 65.393 65.3311 67.2826 61.4324C68.2328 59.4722 68.7147 57.5659 68.9327 54.7996C68.9801 54.1964 69 44.5803 69 34.9771C69 25.3723 68.9785 15.774 68.9311 15.1708C68.7104 12.3598 68.2285 10.4697 67.2476 8.47179C66.4428 6.83635 65.5491 5.61501 64.2517 4.36622C61.9362 2.15403 59.1044 0.807761 55.73 0.32095C54.095 0.0845456 53.7692 0.0145397 45.4031 0H34.0114Z" fill="url(#paint0_radial_395_24)"/>
</g>
<mask id="mask1_395_24" style="mask-type:alpha" maskUnits="userSpaceOnUse" x="0" y="0" width="69" height="69">
<circle cx="34.5" cy="34.5" r="34.5" fill="#D9D9D9"/>
</mask>
<g mask="url(#mask1_395_24)">
<path d="M27.0137 0C9.4791 0 4.3509 0.0180938 3.35407 0.100809C-0.244333 0.400003 -2.48348 0.966728 -4.9229 2.1816C-6.80285 3.11537 -8.2855 4.19777 -9.74876 5.71507C-12.4136 8.48213 -14.0287 11.8864 -14.6134 15.9329C-14.8976 17.8974 -14.9803 18.298 -14.9971 28.3324C-15.0036 31.6771 -14.9971 36.0791 -14.9971 41.9835C-14.9971 59.5087 -14.9777 64.6331 -14.8938 65.6283C-14.603 69.1307 -14.0539 71.3343 -12.8911 73.7447C-10.6687 78.3586 -6.42428 81.8223 -1.42399 83.1147C0.307379 83.5606 2.21963 83.8061 4.67456 83.9225C5.71467 83.9677 16.3161 84 26.9239 84C37.5318 84 48.1396 83.9871 49.1539 83.9354C51.9964 83.8016 53.647 83.58 55.4721 83.1082C60.5047 81.8093 64.6716 78.3974 66.9392 73.7188C68.0794 71.3666 68.6576 69.079 68.9192 65.7595C68.9761 65.0357 69 53.4964 69 41.9725C69 30.4468 68.9742 18.9287 68.9173 18.205C68.6524 14.8318 68.0742 12.5636 66.8972 10.1662C65.9313 8.20362 64.8589 6.73802 63.302 5.23946C60.5234 2.58483 57.1253 0.969313 53.0759 0.38514C51.1139 0.101455 50.7231 0.0174476 40.6838 0H27.0137Z" fill="url(#paint1_radial_395_24)"/>
</g>
<path d="M35.0019 14C29.5702 14 28.8885 14.0238 26.7551 14.1208C24.6259 14.2183 23.1726 14.5554 21.9009 15.05C20.5855 15.5608 19.4696 16.2442 18.358 17.3563C17.2454 18.4679 16.5621 19.5837 16.0496 20.8987C15.5538 22.1708 15.2163 23.6246 15.1204 25.7529C15.025 27.8862 15 28.5683 15 34C15 39.4317 15.0242 40.1113 15.1208 42.2446C15.2188 44.3738 15.5558 45.8271 16.05 47.0987C16.5613 48.4142 17.2446 49.53 18.3567 50.6417C19.468 51.7542 20.5838 52.4392 21.8984 52.95C23.1709 53.4446 24.6247 53.7817 26.7535 53.8792C28.8868 53.9762 29.5681 54 34.9994 54C40.4315 54 41.1111 53.9762 43.2445 53.8792C45.3737 53.7817 46.8287 53.4446 48.1012 52.95C49.4162 52.4392 50.5304 51.7542 51.6416 50.6417C52.7541 49.53 53.4375 48.4142 53.95 47.0992C54.4417 45.8271 54.7792 44.3733 54.8792 42.245C54.975 40.1117 55 39.4317 55 34C55 28.5683 54.975 27.8867 54.8792 25.7533C54.7792 23.6242 54.4417 22.1708 53.95 20.8992C53.4375 19.5837 52.7541 18.4679 51.6416 17.3563C50.5291 16.2438 49.4166 15.5604 48.0999 15.05C46.8249 14.5554 45.3707 14.2183 43.2415 14.1208C41.1082 14.0238 40.429 14 34.9956 14H35.0019ZM33.2077 17.6042C33.7402 17.6033 34.3344 17.6042 35.0019 17.6042C40.3419 17.6042 40.9749 17.6233 43.0836 17.7192C45.0336 17.8083 46.092 18.1342 46.797 18.4079C47.7303 18.7704 48.3958 19.2037 49.0954 19.9037C49.7954 20.6037 50.2287 21.2704 50.592 22.2037C50.8658 22.9079 51.192 23.9662 51.2808 25.9162C51.3766 28.0246 51.3975 28.6579 51.3975 33.9954C51.3975 39.3329 51.3766 39.9662 51.2808 42.0746C51.1916 44.0246 50.8658 45.0829 50.592 45.7871C50.2295 46.7204 49.7954 47.385 49.0954 48.0846C48.3953 48.7846 47.7308 49.2179 46.797 49.5804C46.0928 49.8554 45.0336 50.1804 43.0836 50.2696C40.9753 50.3654 40.3419 50.3863 35.0019 50.3863C29.6614 50.3863 29.0285 50.3654 26.9201 50.2696C24.9701 50.1796 23.9118 49.8537 23.2063 49.58C22.273 49.2175 21.6063 48.7842 20.9063 48.0842C20.2063 47.3842 19.773 46.7192 19.4096 45.7854C19.1359 45.0813 18.8096 44.0229 18.7209 42.0729C18.625 39.9646 18.6059 39.3312 18.6059 33.9904C18.6059 28.6496 18.625 28.0196 18.7209 25.9113C18.81 23.9613 19.1359 22.9029 19.4096 22.1979C19.7721 21.2646 20.2063 20.5979 20.9063 19.8979C21.6063 19.1979 22.273 18.7646 23.2063 18.4012C23.9113 18.1262 24.9701 17.8013 26.9201 17.7117C28.7651 17.6283 29.4802 17.6033 33.2077 17.5992V17.6042ZM45.6778 20.925C44.3528 20.925 43.2778 21.9987 43.2778 23.3242C43.2778 24.6492 44.3528 25.7242 45.6778 25.7242C47.0028 25.7242 48.0778 24.6492 48.0778 23.3242C48.0778 21.9992 47.0028 20.9242 45.6778 20.9242V20.925ZM35.0019 23.7292C29.3297 23.7292 24.7309 28.3279 24.7309 34C24.7309 39.6721 29.3297 44.2687 35.0019 44.2687C40.674 44.2687 45.2711 39.6721 45.2711 34C45.2711 28.3279 40.674 23.7292 35.0019 23.7292ZM35.0019 27.3333C38.6836 27.3333 41.6686 30.3179 41.6686 34C41.6686 37.6817 38.6836 40.6667 35.0019 40.6667C31.3198 40.6667 28.3351 37.6817 28.3351 34C28.3351 30.3179 31.3198 27.3333 35.0019 27.3333Z" fill="white"/>
<defs>
<radialGradient id="paint0_radial_395_24" cx="0" cy="0" r="1" gradientUnits="userSpaceOnUse" gradientTransform="translate(17.5938 75.3915) rotate(-90) scale(69.3752 64.5244)">
<stop stop-color="#FFDD55"/>
<stop offset="0.1" stop-color="#FFDD55"/>
<stop offset="0.5" stop-color="#FF543E"/>
<stop offset="1" stop-color="#C837AB"/>
</radialGradient>
<radialGradient id="paint1_radial_395_24" cx="0" cy="0" r="1" gradientUnits="userSpaceOnUse" gradientTransform="translate(-29.0704 6.05122) rotate(78.6806) scale(37.2132 153.394)">
<stop stop-color="#3771C8"/>
<stop offset="0.128" stop-color="#3771C8"/>
<stop offset="1" stop-color="#6600FF" stop-opacity="0"/>
</radialGradient>
</defs>
</svg>
