<svg width="30" height="30" viewBox="0 0 30 30" fill="none" xmlns="http://www.w3.org/2000/svg">
<path fill-rule="evenodd" clip-rule="evenodd" d="M15 0C23.2844 0 30.0001 6.71572 30.0001 15C30.0001 23.2844 23.2844 30.0001 15 30.0001C6.71572 30.0001 0 23.2844 0 15C0 6.71572 6.71572 0 15 0ZM13.3602 12.4997H15.961V13.8329L15.9986 13.833C16.3608 13.1832 17.2464 12.4998 18.567 12.4998C21.3133 12.4997 21.8212 14.2088 21.8212 16.4319V20.9608L19.1089 20.9608V16.9462C19.1089 15.9891 19.089 14.7572 17.6986 14.7572C16.2864 14.7572 16.07 15.799 16.07 16.8765V20.9609H13.3602V12.4998L13.3602 12.4997ZM11.48 10.1494C11.48 10.9279 10.8482 11.5597 10.0697 11.5597C9.29116 11.5597 8.65918 10.9279 8.65918 10.1494C8.65918 9.3709 9.29116 8.7391 10.0697 8.7391C10.8482 8.7391 11.48 9.3709 11.48 10.1494ZM8.65918 12.4997H11.48V20.9608H8.65918V12.4997Z" fill="#0077B5"/>
</svg>
