<svg width="362" height="122" viewBox="0 0 362 122" fill="none" xmlns="http://www.w3.org/2000/svg">
<path d="M0 0.158203C3.12241 0.158203 6.27296 0.158203 9.67668 0.158203C9.67668 1.08649 9.67668 1.846 9.67668 2.60551C9.67668 17.3456 9.64855 32.0856 9.67668 46.8256C9.70481 55.5459 14.29 62.494 21.7444 65.1663C34.234 69.6671 46.9769 60.8624 47.0331 47.5851C47.1175 32.6482 47.0612 17.7112 47.0894 2.80242C47.0894 2.01478 47.0894 1.25528 47.0894 0.326997C50.2399 0.326997 53.2779 0.326997 56.5129 0.326997C56.5691 0.917724 56.6535 1.53658 56.6535 2.15544C56.6535 17.1487 56.7098 32.1419 56.6535 47.1351C56.5973 61.4532 47.2863 72.7614 33.5589 75.4337C18.2563 78.4155 3.0099 67.8386 0.421952 52.4797C0.337563 51.9734 0.140655 51.4952 0.0281359 51.017C6.00981e-06 34.0828 0 17.1205 0 0.158203Z" fill="black"/>
<path d="M181.773 22.1249C178.538 22.3781 175.5 22.6031 172.378 22.8563C172.181 21.9561 172.04 21.2248 171.871 20.4652C170.69 15.0924 167.567 11.4637 162.223 9.97283C156.934 8.51007 151.59 8.65071 146.329 10.0291C142.897 10.9292 140.169 12.9546 138.678 16.2458C136.484 20.9997 138.959 26.4288 144.473 28.2291C150.239 30.1138 156.203 31.3234 161.998 33.0956C166.217 34.3895 170.577 35.6272 174.375 37.7651C185.599 44.0943 187.343 58.8344 178.257 68.0047C173.221 73.0681 166.948 75.3747 159.944 75.7685C151.477 76.2467 143.179 75.5716 135.865 70.6489C129.086 66.0637 125.991 59.4532 125.513 51.2112C128.636 50.9017 131.674 50.6204 134.796 50.311C134.965 51.1549 135.162 51.9144 135.302 52.6739C136.428 58.6656 139.775 62.9413 145.514 65.0229C152.94 67.7234 160.45 68.0891 167.82 64.6572C172.659 62.4068 175.134 57.8217 174.262 52.899C173.643 49.2702 171.309 46.9073 168.102 45.6133C164.614 44.2068 160.957 43.1942 157.328 42.069C151.365 40.2405 145.176 38.8903 139.409 36.5555C132.546 33.7707 128.354 28.426 128.382 20.7184C128.411 12.9546 131.927 6.90667 139.044 3.61548C149.958 -1.41977 161.069 -1.19473 171.646 4.51563C178.341 8.14438 181.323 14.3892 181.773 22.1249Z" fill="black"/>
<path d="M72.493 95.0672C69.0893 95.0672 66.0513 95.0672 62.8726 95.0672C62.8445 94.4202 62.7601 93.8576 62.7601 93.295C62.7601 78.1049 62.7039 62.9148 62.7601 47.7247C62.8164 34.3349 72.2399 22.7735 85.2359 20.0449C102.93 16.3317 119.723 30.0591 119.357 48.0622C119.132 59.6517 113.506 68.2032 103.211 73.1541C92.9434 78.0768 82.9011 76.7547 73.6745 69.9191C73.3651 69.6941 73.0838 69.469 72.4649 69.019C72.493 77.8517 72.493 86.347 72.493 95.0672ZM72.4649 47.6965C72.4649 58.1046 80.707 66.3466 91.115 66.3466C101.495 66.3466 109.821 58.0483 109.821 47.6965C109.821 37.3447 101.523 29.1027 91.115 29.1027C80.6226 29.0746 72.4649 37.2322 72.4649 47.6965Z" fill="black"/>
<path d="M199.868 68.9337C199.868 77.9071 199.868 86.4023 199.868 95.0382C196.605 95.0382 193.566 95.0382 190.36 95.0382C190.303 94.4475 190.219 93.913 190.219 93.3504C190.219 78.104 190.163 62.8295 190.247 47.5831C190.303 34.1652 199.839 22.6882 213.032 19.9596C228.194 16.8372 243.722 27.2452 246.394 42.351C249.207 58.2162 238.602 73.3782 222.962 75.6004C214.889 76.7538 207.519 74.8972 201.049 69.8338C200.824 69.6369 200.571 69.4682 199.868 68.9337ZM199.924 47.6956C199.952 58.1037 208.194 66.3457 218.574 66.3176C228.954 66.2895 237.28 57.9912 237.28 47.6675C237.28 37.3157 228.982 29.0737 218.546 29.0737C208.082 29.0737 199.924 37.2595 199.924 47.6956Z" fill="black"/>
<path d="M361.832 85.1922C361.832 88.3709 361.832 91.4089 361.832 95.0377C358.737 94.4188 355.671 94.1375 352.83 93.2092C341.775 89.6368 333.814 79.0037 333.674 67.386C333.505 51.5489 333.617 35.7118 333.617 19.8466C333.617 19.6497 333.674 19.4528 333.702 19.1152C336.796 19.1152 339.89 19.1152 343.238 19.1152C343.238 30.0296 343.238 40.944 343.238 52.0553C349.539 52.0553 355.587 52.0553 361.775 52.0553C361.775 55.2902 361.775 58.3282 361.775 61.5913C355.671 61.5913 349.567 61.5913 343.519 61.5913C341.437 76.0782 350.945 84.8547 361.832 85.1922Z" fill="black"/>
<path d="M281.103 14.5885C281.131 14.8135 281.159 14.9823 281.159 15.1511C281.159 17.7109 281.216 20.2988 281.131 22.8587C281.047 26.0936 279.837 28.8785 277.531 31.1288C277.024 31.6352 276.518 32.1415 275.955 32.5916C272.186 35.6015 270.048 39.6241 269.064 44.2655C267.741 50.5666 268.501 56.5864 271.792 62.1561C274.971 67.5289 279.781 70.5388 285.857 71.5514C292.158 72.5923 298.009 71.3827 303.129 67.4726C307.348 64.2658 309.683 59.8494 310.639 54.7298C311.821 48.5131 310.977 42.6058 307.714 37.1205C306.476 35.067 304.817 33.3792 303.016 31.804C300.963 30.0599 299.331 28.0346 298.797 25.306C298.628 24.4058 298.487 23.5057 298.459 22.5774C298.403 20.1019 298.431 17.6265 298.431 15.123C298.431 14.9542 298.459 14.7854 298.487 14.5322C298.797 14.5885 299.05 14.6166 299.331 14.6729C308.727 16.8389 316.265 21.6772 321.469 29.8911C324.282 34.3638 325.83 39.3146 326.477 44.5187C327.292 51.1573 326.702 57.6553 324.226 63.9001C320.288 73.8581 313.115 80.5249 302.932 83.7879C293.424 86.8541 283.832 86.7416 274.521 83.0284C262.566 78.2745 255.533 69.3573 253.367 56.6708C252.158 49.6383 252.664 42.6902 255.139 35.9672C258.937 25.5873 266.335 18.9768 276.715 15.573C277.924 15.1792 279.162 14.9261 280.372 14.5885C280.625 14.6448 280.85 14.6448 281.103 14.5885Z" fill="white"/>
<path d="M298.461 14.5586C292.638 13.4334 286.956 13.4334 281.189 14.5586C281.189 13.8835 281.133 13.2928 281.217 12.7302C281.33 11.9988 281.836 11.605 282.567 11.4925C287.378 10.733 292.188 10.733 296.998 11.4925C297.87 11.6331 298.405 12.1957 298.461 13.0677C298.489 13.5178 298.461 13.9679 298.461 14.5586Z" fill="white"/>
<path d="M298.46 9.32627C292.638 8.20108 286.927 8.20108 281.161 9.32627C281.161 8.67929 281.104 8.14482 281.161 7.61035C281.273 6.85085 281.779 6.40078 282.567 6.26013C286.59 5.61314 290.612 5.52875 294.663 5.9507C295.45 6.03509 296.21 6.14761 296.998 6.26013C297.898 6.40078 298.432 6.96336 298.46 7.89165C298.489 8.31359 298.46 8.73555 298.46 9.32627Z" fill="white"/>
<path d="M286.591 3.27894C286.591 2.0131 287.154 1.11295 288.167 0.494096C289.32 -0.209151 290.501 -0.152888 291.598 0.606618C292.499 1.22547 293.005 2.09749 292.977 3.27894C290.867 3.27894 288.785 3.27894 286.591 3.27894Z" fill="white"/>
<path d="M133.477 115.433C133.224 115.911 132.83 116.277 132.324 116.586C131.818 116.868 131.171 117.036 130.383 117.036C129.623 117.036 128.976 116.896 128.386 116.614C127.795 116.333 127.345 115.967 126.979 115.461C126.642 114.983 126.417 114.42 126.389 113.83H127.626C127.683 114.167 127.795 114.533 128.02 114.87C128.217 115.208 128.526 115.489 128.92 115.742C129.314 115.967 129.792 116.08 130.355 116.08C131.086 116.08 131.649 115.883 132.043 115.489C132.436 115.095 132.633 114.589 132.633 113.97C132.633 113.436 132.493 113.014 132.24 112.704C131.986 112.367 131.649 112.114 131.283 111.945C130.889 111.776 130.383 111.579 129.708 111.354C128.976 111.129 128.386 110.904 127.936 110.679C127.486 110.454 127.12 110.145 126.81 109.723C126.501 109.301 126.332 108.738 126.332 108.035C126.332 107.135 126.642 106.431 127.261 105.869C127.879 105.306 128.723 105.025 129.82 105.025C130.917 105.025 131.789 105.306 132.436 105.841C133.083 106.375 133.477 107.078 133.59 107.866H132.352C132.24 107.36 131.986 106.91 131.564 106.544C131.142 106.15 130.552 105.953 129.82 105.953C129.145 105.953 128.583 106.122 128.189 106.488C127.795 106.853 127.57 107.332 127.57 107.979C127.57 108.485 127.683 108.879 127.964 109.188C128.217 109.498 128.526 109.751 128.892 109.919C129.258 110.088 129.764 110.285 130.411 110.482C131.142 110.707 131.761 110.932 132.211 111.157C132.661 111.382 133.055 111.72 133.365 112.17C133.674 112.62 133.843 113.211 133.843 113.942C133.843 114.477 133.73 114.983 133.477 115.433Z" fill="black"/>
<path d="M140.286 115.884V116.924H139.217C138.345 116.924 137.698 116.727 137.276 116.305C136.854 115.884 136.629 115.18 136.629 114.196V108.851H135.251V107.838H136.629V105.532H137.811V107.838H140.286V108.851H137.782V114.224C137.782 114.871 137.895 115.321 138.12 115.546C138.345 115.799 138.767 115.912 139.358 115.912H140.286V115.884Z" fill="black"/>
<path d="M148.556 108.4C149.203 108.878 149.653 109.525 149.878 110.313V107.809H151.031V116.923H149.878V114.42C149.625 115.207 149.203 115.854 148.556 116.333C147.909 116.811 147.121 117.064 146.221 117.064C145.405 117.064 144.674 116.867 144.027 116.501C143.38 116.136 142.874 115.573 142.508 114.87C142.142 114.167 141.974 113.351 141.974 112.394C141.974 111.438 142.142 110.594 142.508 109.891C142.874 109.188 143.352 108.653 143.999 108.259C144.646 107.894 145.377 107.697 146.193 107.697C147.121 107.697 147.909 107.922 148.556 108.4ZM144.055 109.694C143.436 110.341 143.127 111.241 143.127 112.366C143.127 113.492 143.436 114.392 144.055 115.039C144.674 115.686 145.49 116.023 146.503 116.023C147.15 116.023 147.712 115.883 148.247 115.573C148.753 115.264 149.175 114.842 149.456 114.307C149.737 113.745 149.906 113.126 149.906 112.394C149.906 111.663 149.766 111.044 149.456 110.482C149.175 109.919 148.753 109.497 148.247 109.216C147.74 108.934 147.15 108.766 146.503 108.766C145.49 108.738 144.674 109.047 144.055 109.694Z" fill="black"/>
<path d="M156.205 108.176C156.796 107.81 157.499 107.641 158.343 107.641V108.907H157.978C157.106 108.907 156.374 109.132 155.812 109.61C155.249 110.088 154.94 110.848 154.94 111.917V116.896H153.758V107.782H154.94V109.666C155.193 109.048 155.615 108.541 156.205 108.176Z" fill="black"/>
<path d="M164.195 115.884V116.924H163.126C162.254 116.924 161.607 116.727 161.185 116.305C160.763 115.884 160.538 115.18 160.538 114.196V108.851H159.159V107.838H160.538V105.532H161.719V107.838H164.195V108.851H161.691V114.224C161.691 114.871 161.804 115.321 162.029 115.546C162.254 115.799 162.676 115.912 163.266 115.912H164.195V115.884Z" fill="black"/>
<path d="M171.933 105.164V112.281C171.933 113.547 172.215 114.475 172.749 115.066C173.284 115.657 174.043 115.938 175 115.938C175.956 115.938 176.687 115.657 177.222 115.066C177.756 114.475 178.038 113.547 178.038 112.281V105.164H179.191V112.281C179.191 113.884 178.797 115.066 178.038 115.853C177.278 116.641 176.265 117.035 174.971 117.035C173.677 117.035 172.665 116.641 171.905 115.853C171.146 115.066 170.752 113.884 170.752 112.281V105.164H171.933Z" fill="black"/>
<path d="M188.863 108.26C189.51 108.625 189.988 109.16 190.354 109.891C190.719 110.594 190.888 111.438 190.888 112.395C190.888 113.351 190.719 114.167 190.354 114.87C189.988 115.573 189.51 116.108 188.863 116.502C188.216 116.896 187.484 117.064 186.669 117.064C185.74 117.064 184.953 116.839 184.306 116.333C183.659 115.855 183.237 115.208 182.984 114.42V121.228H181.83V107.81H182.984V110.313C183.237 109.526 183.659 108.879 184.306 108.4C184.953 107.922 185.74 107.669 186.669 107.669C187.513 107.697 188.244 107.866 188.863 108.26ZM184.643 109.188C184.137 109.497 183.743 109.919 183.434 110.454C183.152 111.016 183.012 111.635 183.012 112.367C183.012 113.098 183.152 113.717 183.434 114.279C183.715 114.842 184.137 115.264 184.643 115.545C185.15 115.855 185.74 115.995 186.387 115.995C187.428 115.995 188.244 115.658 188.835 115.011C189.425 114.364 189.735 113.464 189.735 112.339C189.735 111.213 189.425 110.341 188.835 109.666C188.244 108.991 187.4 108.682 186.387 108.682C185.712 108.738 185.15 108.879 184.643 109.188Z" fill="black"/>
<path d="M197.812 109.976C198.178 109.61 198.628 109.414 199.163 109.414C199.697 109.414 200.147 109.61 200.541 109.976C200.907 110.342 201.104 110.82 201.104 111.355C201.104 111.889 200.907 112.339 200.541 112.705C200.175 113.07 199.725 113.267 199.163 113.267C198.628 113.267 198.178 113.099 197.812 112.705C197.447 112.339 197.25 111.889 197.25 111.355C197.25 110.82 197.447 110.37 197.812 109.976Z" fill="white"/>
<path d="M219.159 105.418V116.924H218.005V107.275L214.039 116.924H212.998L209.032 107.303V116.924H207.85V105.418H209.229L213.533 115.489L217.808 105.418H219.159Z" fill="black"/>
<path d="M228.302 108.259C228.977 108.625 229.512 109.16 229.905 109.891C230.299 110.594 230.496 111.438 230.496 112.394C230.496 113.351 230.299 114.195 229.905 114.87C229.512 115.573 228.977 116.108 228.302 116.501C227.627 116.895 226.867 117.064 225.995 117.064C225.123 117.064 224.364 116.867 223.689 116.501C223.014 116.136 222.479 115.573 222.085 114.87C221.692 114.167 221.495 113.351 221.495 112.394C221.495 111.438 221.692 110.594 222.085 109.891C222.479 109.188 223.014 108.653 223.689 108.259C224.364 107.894 225.152 107.697 225.995 107.697C226.839 107.697 227.627 107.866 228.302 108.259ZM224.336 109.103C223.829 109.385 223.407 109.778 223.098 110.341C222.789 110.904 222.62 111.579 222.62 112.366C222.62 113.182 222.76 113.829 223.098 114.392C223.407 114.926 223.801 115.348 224.336 115.601C224.842 115.854 225.405 115.995 225.995 115.995C226.586 115.995 227.121 115.854 227.627 115.601C228.133 115.32 228.527 114.926 228.837 114.392C229.146 113.857 229.315 113.182 229.315 112.366C229.315 111.579 229.146 110.904 228.837 110.341C228.527 109.778 228.133 109.385 227.627 109.103C227.121 108.85 226.586 108.709 225.995 108.709C225.405 108.709 224.842 108.85 224.336 109.103Z" fill="black"/>
<path d="M236.124 115.603L239.162 107.811H240.428L236.799 116.925H235.477L231.849 107.811H233.114L236.124 115.603Z" fill="black"/>
<path d="M248.162 115.461C248.724 115.039 249.034 114.504 249.146 113.801H250.384C250.215 114.758 249.765 115.545 249.006 116.164C248.246 116.755 247.318 117.064 246.164 117.064C245.292 117.064 244.533 116.867 243.886 116.502C243.239 116.136 242.704 115.602 242.311 114.87C241.945 114.167 241.748 113.323 241.748 112.367C241.748 111.41 241.945 110.566 242.311 109.863C242.676 109.16 243.211 108.625 243.886 108.232C244.561 107.866 245.321 107.669 246.164 107.669C247.036 107.669 247.824 107.866 248.471 108.232C249.118 108.597 249.596 109.104 249.934 109.722C250.271 110.341 250.44 111.016 250.44 111.748C250.44 112.057 250.412 112.339 250.384 112.592H242.901C242.901 113.351 243.07 113.998 243.38 114.533C243.689 115.039 244.083 115.433 244.561 115.686C245.039 115.939 245.574 116.052 246.136 116.052C246.924 116.08 247.599 115.855 248.162 115.461ZM244.561 109.019C244.083 109.272 243.689 109.638 243.38 110.144C243.07 110.651 242.901 111.27 242.901 112.029H249.287C249.343 111.27 249.202 110.651 248.921 110.144C248.64 109.638 248.246 109.244 247.768 109.019C247.29 108.766 246.755 108.653 246.164 108.653C245.574 108.653 245.039 108.766 244.561 109.019Z" fill="black"/>
<path d="M258.345 105.164V112.281C258.345 113.547 258.626 114.475 259.16 115.066C259.695 115.657 260.454 115.938 261.411 115.938C262.367 115.938 263.098 115.657 263.633 115.066C264.167 114.475 264.449 113.547 264.449 112.281V105.164H265.602V112.281C265.602 113.884 265.208 115.066 264.449 115.853C263.689 116.641 262.677 117.035 261.383 117.035C260.089 117.035 259.076 116.641 258.316 115.853C257.557 115.066 257.163 113.884 257.163 112.281V105.164H258.345Z" fill="black"/>
<path d="M275.279 108.26C275.926 108.625 276.404 109.16 276.77 109.891C277.136 110.594 277.305 111.438 277.305 112.395C277.305 113.351 277.136 114.167 276.77 114.87C276.404 115.573 275.926 116.108 275.279 116.502C274.632 116.896 273.901 117.064 273.085 117.064C272.157 117.064 271.369 116.839 270.722 116.333C270.075 115.855 269.653 115.208 269.4 114.42V121.228H268.247V107.81H269.4V110.313C269.653 109.526 270.075 108.879 270.722 108.4C271.369 107.922 272.157 107.669 273.085 107.669C273.929 107.697 274.66 107.866 275.279 108.26ZM271.032 109.188C270.525 109.497 270.132 109.919 269.822 110.454C269.541 111.016 269.4 111.635 269.4 112.367C269.4 113.098 269.541 113.717 269.822 114.279C270.103 114.842 270.525 115.264 271.032 115.545C271.538 115.855 272.129 115.995 272.776 115.995C273.817 115.995 274.632 115.658 275.223 115.011C275.814 114.364 276.123 113.464 276.123 112.339C276.123 111.213 275.814 110.341 275.223 109.666C274.632 108.991 273.788 108.682 272.776 108.682C272.129 108.738 271.566 108.879 271.032 109.188Z" fill="black"/>
<path d="M284.229 109.976C284.595 109.61 285.045 109.414 285.579 109.414C286.114 109.414 286.564 109.61 286.957 109.976C287.323 110.342 287.52 110.82 287.52 111.355C287.52 111.889 287.323 112.339 286.957 112.705C286.592 113.07 286.142 113.267 285.579 113.267C285.045 113.267 284.595 113.099 284.229 112.705C283.863 112.339 283.666 111.889 283.666 111.355C283.666 110.82 283.863 110.37 284.229 109.976Z" fill="white"/>
<path d="M296.461 111.017L301.974 116.924H300.54L295.448 111.41V116.924H294.267V105.166H295.448V110.679L300.54 105.166H301.974L296.461 111.017Z" fill="black"/>
<path d="M309.712 115.461C310.275 115.039 310.584 114.504 310.696 113.801H311.934C311.765 114.758 311.315 115.545 310.556 116.164C309.796 116.755 308.868 117.064 307.715 117.064C306.843 117.064 306.083 116.867 305.436 116.502C304.789 116.136 304.255 115.602 303.861 114.87C303.495 114.167 303.298 113.323 303.298 112.367C303.298 111.41 303.495 110.566 303.861 109.863C304.227 109.16 304.761 108.625 305.436 108.232C306.111 107.866 306.871 107.669 307.715 107.669C308.587 107.669 309.374 107.866 310.021 108.232C310.668 108.597 311.147 109.104 311.484 109.722C311.822 110.341 311.99 111.016 311.99 111.748C311.99 112.057 311.962 112.339 311.934 112.592H304.452C304.452 113.351 304.62 113.998 304.93 114.533C305.239 115.039 305.633 115.433 306.111 115.686C306.59 115.939 307.124 116.052 307.687 116.052C308.474 116.08 309.177 115.855 309.712 115.461ZM306.111 109.019C305.633 109.272 305.239 109.638 304.93 110.144C304.62 110.651 304.452 111.27 304.452 112.029H310.837C310.893 111.27 310.753 110.651 310.471 110.144C310.19 109.638 309.796 109.244 309.318 109.019C308.84 108.766 308.305 108.653 307.715 108.653C307.124 108.653 306.59 108.766 306.111 109.019Z" fill="black"/>
<path d="M320.288 115.461C320.851 115.039 321.16 114.504 321.273 113.801H322.51C322.342 114.758 321.892 115.545 321.132 116.164C320.373 116.755 319.444 117.064 318.291 117.064C317.419 117.064 316.659 116.867 316.012 116.502C315.365 116.136 314.831 115.602 314.437 114.87C314.071 114.167 313.875 113.323 313.875 112.367C313.875 111.41 314.071 110.566 314.437 109.863C314.803 109.16 315.337 108.625 316.012 108.232C316.687 107.866 317.447 107.669 318.291 107.669C319.163 107.669 319.951 107.866 320.598 108.232C321.245 108.597 321.723 109.104 322.06 109.722C322.398 110.341 322.567 111.016 322.567 111.748C322.567 112.057 322.539 112.339 322.51 112.592H315.028C315.028 113.351 315.197 113.998 315.506 114.533C315.815 115.039 316.209 115.433 316.687 115.686C317.166 115.939 317.7 116.052 318.263 116.052C319.05 116.08 319.726 115.855 320.288 115.461ZM316.659 109.019C316.181 109.272 315.787 109.638 315.478 110.144C315.169 110.651 315 111.27 315 112.029H321.385C321.441 111.27 321.301 110.651 321.019 110.144C320.738 109.638 320.344 109.244 319.866 109.019C319.388 108.766 318.853 108.653 318.263 108.653C317.7 108.653 317.166 108.766 316.659 109.019Z" fill="black"/>
<path d="M331.877 108.26C332.524 108.625 333.002 109.16 333.368 109.891C333.734 110.594 333.903 111.438 333.903 112.395C333.903 113.351 333.734 114.167 333.368 114.87C333.002 115.573 332.524 116.108 331.877 116.502C331.23 116.896 330.499 117.064 329.683 117.064C328.755 117.064 327.967 116.839 327.32 116.333C326.673 115.855 326.251 115.208 325.998 114.42V121.228H324.845V107.81H325.998V110.313C326.251 109.526 326.673 108.879 327.32 108.4C327.967 107.922 328.755 107.669 329.683 107.669C330.499 107.697 331.23 107.866 331.877 108.26ZM327.63 109.188C327.123 109.497 326.729 109.919 326.42 110.454C326.139 111.016 325.998 111.635 325.998 112.367C325.998 113.098 326.139 113.717 326.42 114.279C326.701 114.842 327.123 115.264 327.63 115.545C328.136 115.855 328.727 115.995 329.374 115.995C330.414 115.995 331.23 115.658 331.821 115.011C332.412 114.364 332.721 113.464 332.721 112.339C332.721 111.213 332.412 110.341 331.821 109.666C331.23 108.991 330.386 108.682 329.374 108.682C328.727 108.738 328.136 108.879 327.63 109.188Z" fill="black"/>
<path d="M341.806 105.166V112.282C341.806 113.548 342.087 114.477 342.622 115.067C343.156 115.658 343.915 115.939 344.872 115.939C345.828 115.939 346.56 115.658 347.094 115.067C347.629 114.477 347.91 113.548 347.91 112.282V105.166H349.063V112.282C349.063 113.886 348.669 115.067 347.91 115.855C347.15 116.643 346.138 117.036 344.844 117.036C343.55 117.036 342.537 116.643 341.778 115.855C341.018 115.067 340.624 113.886 340.624 112.282V105.166H341.806Z" fill="black"/>
<path d="M358.771 108.26C359.417 108.625 359.896 109.16 360.261 109.891C360.627 110.594 360.796 111.438 360.796 112.395C360.796 113.351 360.627 114.167 360.261 114.87C359.896 115.573 359.417 116.108 358.771 116.502C358.124 116.896 357.392 117.064 356.576 117.064C355.648 117.064 354.86 116.839 354.213 116.333C353.566 115.855 353.144 115.208 352.891 114.42V121.228H351.738V107.81H352.891V110.313C353.144 109.526 353.566 108.879 354.213 108.4C354.86 107.922 355.648 107.669 356.576 107.669C357.392 107.697 358.124 107.866 358.771 108.26ZM354.523 109.188C354.017 109.497 353.623 109.919 353.313 110.454C353.032 111.016 352.891 111.635 352.891 112.367C352.891 113.098 353.032 113.717 353.313 114.279C353.595 114.842 354.017 115.264 354.523 115.545C355.029 115.855 355.62 115.995 356.267 115.995C357.308 115.995 358.124 115.658 358.714 115.011C359.305 114.364 359.614 113.464 359.614 112.339C359.614 111.213 359.305 110.341 358.714 109.666C358.124 108.991 357.28 108.682 356.267 108.682C355.62 108.738 355.029 108.879 354.523 109.188Z" fill="black"/>
</svg>
