<svg width="17" height="17" viewBox="0 0 17 17" fill="none" xmlns="http://www.w3.org/2000/svg">
<g clip-path="url(#clip0_635_44)">
<path d="M12.728 5.65684C13.8995 5.65684 14.8493 4.70709 14.8493 3.53551C14.8493 2.36394 13.8995 1.41418 12.728 1.41418C11.5564 1.41418 10.6066 2.36394 10.6066 3.53551C10.6066 4.70709 11.5564 5.65684 12.728 5.65684Z" stroke="white" stroke-width="1.5" stroke-linecap="round" stroke-linejoin="round"/>
<path d="M4.24267 10.6067C5.41425 10.6067 6.364 9.65692 6.364 8.48534C6.364 7.31377 5.41425 6.36401 4.24267 6.36401C3.07109 6.36401 2.12134 7.31377 2.12134 8.48534C2.12134 9.65692 3.07109 10.6067 4.24267 10.6067Z" stroke="white" stroke-width="1.5" stroke-linecap="round" stroke-linejoin="round"/>
<path d="M12.728 15.5564C13.8995 15.5564 14.8493 14.6066 14.8493 13.4351C14.8493 12.2635 13.8995 11.3137 12.728 11.3137C11.5564 11.3137 10.6066 12.2635 10.6066 13.4351C10.6066 14.6066 11.5564 15.5564 12.728 15.5564Z" stroke="white" stroke-width="1.5" stroke-linecap="round" stroke-linejoin="round"/>
<path d="M6.0741 9.5531L10.9037 12.3674" stroke="white" stroke-width="1.5" stroke-linecap="round" stroke-linejoin="round"/>
<path d="M10.8966 4.60327L6.0741 7.41757" stroke="white" stroke-width="1.5" stroke-linecap="round" stroke-linejoin="round"/>
</g>
<defs>
<clipPath id="clip0_635_44">
<rect width="16.9706" height="16.9706" fill="white"/>
</clipPath>
</defs>
</svg>
