<svg width="30" height="30" viewBox="0 0 30 30" fill="none" xmlns="http://www.w3.org/2000/svg">
<g id="twitter-round-color-icon 1" clip-path="url(#clip0_1_118)">
<path id="Vector" fill-rule="evenodd" clip-rule="evenodd" d="M15 0C23.2844 0 30.0001 6.71572 30.0001 15C30.0001 23.2844 23.2844 30.0001 15 30.0001C6.71572 30.0001 0 23.2844 0 15C0 6.71572 6.71572 0 15 0ZM23.1444 9.94852C22.5456 10.2164 21.9004 10.3943 21.2268 10.4737C21.917 10.0603 22.4448 9.40537 22.6968 8.62552C22.0516 9.00703 21.3348 9.28684 20.5751 9.43651C19.9643 8.78752 19.0968 8.38405 18.1356 8.38405C16.2903 8.38405 14.7963 9.87895 14.7963 11.7231C14.7963 11.9835 14.8251 12.2381 14.8817 12.4836C12.105 12.3429 9.64333 11.0137 7.99552 8.9911C7.69987 9.50104 7.54354 10.0809 7.54354 10.6706V10.671C7.54354 11.8289 8.13142 12.8531 9.02854 13.4503C8.48107 13.4341 7.96618 13.2815 7.51402 13.034V13.0758C7.51402 14.6951 8.66503 16.0464 10.1945 16.3518C9.91432 16.4278 9.61849 16.4699 9.31375 16.4699C9.09793 16.4699 8.88994 16.4477 8.68312 16.4101C9.11026 17.7363 10.3434 18.7031 11.8037 18.7313C10.6587 19.6283 9.22069 20.1625 7.65289 20.1625C7.38235 20.1625 7.11874 20.1459 6.85549 20.1144C8.33743 21.0652 10.093 21.616 11.979 21.616C18.1234 21.616 21.4863 16.524 21.4863 12.1091C21.4863 11.9624 21.483 11.8203 21.4769 11.6765C22.1295 11.2097 22.6953 10.6206 23.1432 9.94987L23.1447 9.94834L23.1444 9.94852Z" fill="#1DA1F2"/>
</g>
<defs>
<clipPath id="clip0_1_118">
<rect width="30" height="30" fill="white"/>
</clipPath>
</defs>
</svg>
